<?xml version="1.0" encoding="utf-8"?>
<!-- Generator: Adobe Illustrator 19.0.0, SVG Export Plug-In . SVG Version: 6.00 Build 0)  -->
<svg version="1.1" id="Layer_1" xmlns="http://www.w3.org/2000/svg" xmlns:xlink="http://www.w3.org/1999/xlink" x="0px" y="0px"
	 viewBox="194 -104 1000 1000" style="enable-background:new 194 -104 1000 1000;" xml:space="preserve">
<path d="M216,721.5v-43L404.7,516V261.9c0-68.5,21.5-129.2,64.5-182.2s97.5-86.3,163.5-100V-80h125.2v59.8
	c64.8,13.7,118.9,47,162.5,100c43.6,52.9,65.4,113.7,65.4,182.2V516l186.8,162.5v43H216L216,721.5z M625.2,804.6
	c0-19.3,6.9-35.8,20.6-49.5c13.7-13.7,30.2-20.6,49.5-20.6c19.3,0,35.8,6.9,49.5,20.6c13.7,13.7,20.6,30.2,20.6,49.5
	c0,19.3-6.9,35.5-20.6,48.6c-13.7,13.1-30.2,19.6-49.5,19.6c-19.3,0-35.8-6.5-49.5-19.6C632,840.1,625.2,823.9,625.2,804.6z"/>
</svg>
